<?xml version="1.0" encoding="UTF-8"?>
<svg id="Layer_2" data-name="Layer 2" xmlns="http://www.w3.org/2000/svg" viewBox="0 0 113.77 22.53">
  <defs>
    <style>
      .cls-1 {
        fill: none;
        stroke: #ff44d8;
        stroke-miterlimit: 10;
        stroke-width: .96px;
      }

      .cls-2 {
        fill: #ff44d8;
      }

      .cls-3 {
        fill: #1a1525;
      }

      .cls-4 {
        fill: #31243f;
      }
    </style>
  </defs>
  <g id="Layer_1-2" data-name="Layer 1">
    <g>
      <polyline class="cls-1" points="113.28 22.53 113.28 7.25 78.86 7.25"/>
      <polygon class="cls-2" points="111.21 17.56 113.77 17.56 113.77 6.77 100.24 6.77 100.24 9.32 111.21 9.32 111.21 17.56"/>
      <rect class="cls-2" x="96.2" y="6.77" width="2.65" height="2.55"/>
    </g>
    <g>
      <rect class="cls-4" x="72.05" y="4.72" width="4.8" height="3.36" transform="translate(80.85 -68.04) rotate(90)"/>
      <rect class="cls-2" x="61.66" y="2.28" width="4.55" height="17.69" transform="translate(75.06 -52.82) rotate(90)"/>
      <rect class="cls-2" x="47.14" y=".88" width="4.55" height="11.38" transform="translate(55.99 -42.84) rotate(90)"/>
      <rect class="cls-3" x="36.92" y="12.24" width="4.55" height="6.86" transform="translate(54.87 -23.53) rotate(90)"/>
      <rect class="cls-2" x="20.8" y="3.48" width="8.82" height="1.85" transform="translate(29.62 -20.8) rotate(90)"/>
      <rect class="cls-2" x="28.67" y="6.3" width="4.55" height="9.64" transform="translate(42.07 -19.83) rotate(90)"/>
      <rect class="cls-2" x="12.91" y="2.02" width="4.55" height="18.21" transform="translate(26.31 -4.07) rotate(90)"/>
      <rect class="cls-4" x="61.02" y="3.51" width="2.72" height="3.19" transform="translate(67.49 -57.27) rotate(90)"/>
      <rect class="cls-4" x="-.03" y="4.57" width="3.9" height="3.83" transform="translate(8.39 4.57) rotate(90)"/>
    </g>
  </g>
</svg>