<?xml version="1.0" encoding="UTF-8"?>
<svg xmlns="http://www.w3.org/2000/svg" xmlns:xlink="http://www.w3.org/1999/xlink" viewBox="0 0 62.2 54">
  <defs>
    <style>
      .cls-1 {
        fill: #826da3;
      }

      .cls-2 {
        fill: url(#radial-gradient-4);
      }

      .cls-3 {
        fill: url(#radial-gradient-3);
      }

      .cls-4 {
        fill: url(#radial-gradient-2);
      }

      .cls-5 {
        fill: url(#linear-gradient-6);
      }

      .cls-6 {
        fill: url(#radial-gradient);
      }

      .cls-7 {
        fill: url(#linear-gradient);
      }

      .cls-8 {
        isolation: isolate;
      }

      .cls-9 {
        fill: url(#linear-gradient-8);
      }

      .cls-9, .cls-10, .cls-11, .cls-12, .cls-13, .cls-14, .cls-15, .cls-16, .cls-17 {
        mix-blend-mode: overlay;
      }

      .cls-10 {
        fill: url(#linear-gradient-2);
      }

      .cls-11 {
        fill: url(#linear-gradient-3);
      }

      .cls-12 {
        fill: url(#linear-gradient-4);
      }

      .cls-13 {
        fill: url(#linear-gradient-9);
      }

      .cls-14 {
        fill: url(#linear-gradient-5);
      }

      .cls-15 {
        fill: url(#linear-gradient-7);
      }

      .cls-16 {
        fill: url(#linear-gradient-10);
      }
    </style>
    <radialGradient id="radial-gradient" cx="13.96" cy="3.49" fx="13.96" fy="3.49" r="30.9" gradientUnits="userSpaceOnUse">
      <stop offset=".11" stop-color="#f7f1f5"/>
      <stop offset="1" stop-color="#f3c5ef"/>
    </radialGradient>
    <linearGradient id="linear-gradient" x1="10.84" y1="0" x2="10.84" y2="54" gradientUnits="userSpaceOnUse">
      <stop offset="0" stop-color="#6b316e"/>
      <stop offset="1" stop-color="#1a1525"/>
    </linearGradient>
    <radialGradient id="radial-gradient-2" cx="36.07" cy="22.3" fx="36.07" fy="22.3" r="34.2" gradientUnits="userSpaceOnUse">
      <stop offset=".06" stop-color="#fcfcfc"/>
      <stop offset="1" stop-color="#d6d6e8"/>
    </radialGradient>
    <linearGradient id="linear-gradient-2" x1="11.32" y1="27.86" x2="20.38" y2="70.03" gradientUnits="userSpaceOnUse">
      <stop offset=".35" stop-color="#fec2ff"/>
      <stop offset=".35" stop-color="#fdc0ff" stop-opacity=".99"/>
      <stop offset=".4" stop-color="#fdafff" stop-opacity=".78"/>
      <stop offset=".46" stop-color="#fda0ff" stop-opacity=".6"/>
      <stop offset=".52" stop-color="#fc92ff" stop-opacity=".44"/>
      <stop offset=".58" stop-color="#fc87ff" stop-opacity=".3"/>
      <stop offset=".64" stop-color="#fc7eff" stop-opacity=".19"/>
      <stop offset=".71" stop-color="#fc76ff" stop-opacity=".11"/>
      <stop offset=".78" stop-color="#fc71ff" stop-opacity=".05"/>
      <stop offset=".87" stop-color="#fc6eff" stop-opacity=".01"/>
      <stop offset="1" stop-color="#fc6eff" stop-opacity="0"/>
    </linearGradient>
    <linearGradient id="linear-gradient-3" x1="168.14" y1="-149.43" x2="169.15" y2="-144.72" gradientTransform="translate(-141.61 -150.44) rotate(90)" xlink:href="#linear-gradient-2"/>
    <linearGradient id="linear-gradient-4" x1="170.31" y1="-147.18" x2="170.67" y2="-145.49" gradientTransform="translate(-138.47 -149.6) rotate(90)" xlink:href="#linear-gradient-2"/>
    <linearGradient id="linear-gradient-5" x1="12.38" y1="34.03" x2="18.15" y2="60.87" xlink:href="#linear-gradient-2"/>
    <radialGradient id="radial-gradient-3" cx="-551.74" cy="3.49" fx="-551.74" fy="3.49" r="30.9" gradientTransform="translate(-503.49) rotate(-180) scale(1 -1)" xlink:href="#radial-gradient"/>
    <linearGradient id="linear-gradient-6" x1="51.36" y1="0" x2="51.36" y2="54" xlink:href="#linear-gradient"/>
    <radialGradient id="radial-gradient-4" cx="-529.62" cy="22.3" fx="-529.62" fy="22.3" r="34.2" gradientTransform="translate(-503.49) rotate(-180) scale(1 -1)" xlink:href="#radial-gradient-2"/>
    <linearGradient id="linear-gradient-7" x1="-554.37" y1="27.86" x2="-545.31" y2="70.03" gradientTransform="translate(-503.49) rotate(-180) scale(1 -1)" xlink:href="#linear-gradient-2"/>
    <linearGradient id="linear-gradient-8" x1="-333.78" y1="111.5" x2="-332.76" y2="116.22" gradientTransform="translate(-279.4 -93.79) rotate(-180) scale(1 -1)" xlink:href="#linear-gradient-2"/>
    <linearGradient id="linear-gradient-9" x1="-331.61" y1="113.76" x2="-331.24" y2="115.45" gradientTransform="translate(-278.11 -93.05) rotate(-180) scale(1 -1)" xlink:href="#linear-gradient-2"/>
    <linearGradient id="linear-gradient-10" x1="-553.31" y1="34.03" x2="-547.55" y2="60.87" gradientTransform="translate(-503.49) rotate(-180) scale(1 -1)" xlink:href="#linear-gradient-2"/>
  </defs>
  <g class="cls-8">
    <g id="Layer_2" data-name="Layer 2">
      <g id="Layer_1-2" data-name="Layer 1">
        <g>
          <g>
            <g>
              <path class="cls-6" d="M20.6,50.87s-.12.06-.35.18c-1.49.7-7.46,3.22-12.29.91-1.05-.51-1.95-1.09-2.71-1.71-3.31-2.69-4.16-6.05-4.16-6.05,0,0,1.41.33,1.57.11.15-.13-1.78-2.25-1.57-8.63.03-2.1.31-4.62.97-7.71.29-1.39.71-2.81,1.24-4.22C7.43,12.32,17.84.54,19.19,1.09c.56.23.9,6.88,1.1,15.24.18,6.97.26,15.12.29,21.77.04,7.31.02,12.77.02,12.77Z"/>
              <path class="cls-7" d="M19.08,1.07s.08,0,.11.02c.56.23.9,6.88,1.1,15.24.18,6.97.26,15.12.29,21.77.04,7.31.02,12.77.02,12.77,0,0-.12.06-.35.18-1.04.49-4.27,1.87-7.76,1.87-1.51,0-3.07-.26-4.52-.95-1.05-.51-1.95-1.09-2.71-1.71-3.31-2.69-4.16-6.05-4.16-6.05,0,0,.79.19,1.25.19.16,0,.28-.02.32-.08.15-.13-1.78-2.25-1.57-8.63.03-2.1.31-4.62.97-7.71.29-1.39.71-2.81,1.24-4.22C7.34,12.58,17.36,1.08,19.08,1.07M19.09,0h0C16.33,0,6.09,12.86,2.28,23.39c-.55,1.48-.98,2.96-1.28,4.37C.39,30.68.05,33.34.02,35.67c-.12,3.69.46,6.07.97,7.47-.25.02-.48.13-.66.32-.26.27-.37.65-.28,1.02.04.15.98,3.74,4.52,6.62.87.71,1.85,1.33,2.92,1.84,1.47.7,3.15,1.06,4.99,1.06,3.62,0,6.95-1.38,8.22-1.97.28-.14.41-.21.41-.21.34-.19.56-.55.56-.94,0-.05.02-5.55-.02-12.78-.04-8.72-.14-16.05-.29-21.79C21,.67,20.44.44,19.59.1c-.15-.06-.33-.1-.51-.1h0Z"/>
            </g>
            <g>
              <path class="cls-4" d="M12.48,53.06c-1.7,0-3.24-.33-4.58-.97-5.58-2.66-6.93-7.8-6.94-7.85-.01-.04,0-.09.03-.13.03-.03.06-.04.1-.04.01,0,.02,0,.03,0,0,0,.78.18,1.22.18.12,0,.18-.01.2-.02-.03,0-.08-.1-.13-.2-.4-.8-1.63-3.22-1.46-8.36,0-.07.05-.12.12-.13,0,0,0,0,.01,0,.06,0,.11.04.13.1,2.5,9.74,9.84,12.6,11.41,13.1-.71-1.48-3.59-8.5,1.46-17.24,3.05-5.28,4.98-11.18,6.07-15.21.02-.06.07-.1.13-.1,0,0,.01,0,.02,0,.07,0,.12.07.12.13v.32c.37,14.46.31,34.02.31,34.21,0,.05-.03.1-.07.12-.04.02-3.94,2.07-8.18,2.07Z"/>
              <path class="cls-1" d="M20.29,16.34c0,.11.01.21.01.32v.03c.37,14.6.3,34.18.3,34.18,0,0-3.86,2.05-8.12,2.05-1.51,0-3.07-.26-4.52-.95-5.59-2.67-6.87-7.76-6.87-7.76,0,0,.79.19,1.25.19.16,0,.28-.02.32-.08.15-.13-1.78-2.25-1.57-8.63,2.85,11.08,11.8,13.29,11.8,13.29,0,0-4.37-7.53,1.31-17.39,2.93-5.08,4.9-10.87,6.08-15.24M20.29,16.07c-.12,0-.23.08-.26.2-1.09,4.02-3.02,9.91-6.06,15.18-4.8,8.32-2.47,15.1-1.6,17.08-2.01-.72-8.67-3.75-11.02-12.91-.03-.12-.14-.2-.26-.2,0,0-.02,0-.03,0-.13.01-.23.12-.24.26-.17,5.18,1.06,7.62,1.47,8.43,0,0,0,.02.01.02-.43,0-1.15-.18-1.15-.18-.02,0-.04,0-.06,0-.07,0-.14.03-.19.08-.07.07-.09.16-.07.25.05.21,1.37,5.25,7.01,7.94,1.36.65,2.92.98,4.64.98,4.28,0,8.09-2,8.25-2.08.09-.05.14-.14.14-.24,0-.2.06-19.75-.3-34.19,0-.08,0-.14,0-.2,0-.05,0-.1,0-.15,0-.13-.1-.25-.23-.27-.01,0-.02,0-.04,0h0Z"/>
            </g>
            <path class="cls-17" d="M20.6,50.87s-7.08,3.76-12.64,1.1c-5.59-2.67-6.87-7.76-6.87-7.76,0,0,1.41.33,1.57.11.15-.13-1.78-2.25-1.57-8.63.03-2.1.31-4.62.97-7.71.29-1.39.71-2.81,1.24-4.22-2.27,22.42,15.34,19.36,17.28,14.35.04,7.31.02,12.77.02,12.77Z"/>
            <path class="cls-10" d="M20.6,50.87s-.12.06-.35.18c-.19-7.77-1.25-48.41-1.61-48.46-.47,0-8.94,8.42-13.65,20.93-4.74,12.55-1.24,21.98-1.24,21.98,0,0-1.13-.38-1.06.48.03.49,1.41,2.59,2.57,4.28-3.31-2.69-4.16-6.05-4.16-6.05,0,0,1.41.33,1.57.11.15-.13-1.78-2.25-1.57-8.63.03-2.1.31-4.62.97-7.71.29-1.39.71-2.81,1.24-4.22C7.43,12.32,17.84.54,19.19,1.09c.56.23.9,6.88,1.1,15.24.18,6.97.26,15.12.29,21.77.04,7.31.02,12.77.02,12.77Z"/>
            <ellipse class="cls-11" cx="7.82" cy="17.71" rx="2.79" ry="1.46" transform="translate(-11.5 16.48) rotate(-62.53)"/>
            <ellipse class="cls-12" cx="8.71" cy="20.71" rx=".99" ry=".66" transform="translate(-13.69 18.88) rotate(-62.53)"/>
            <path class="cls-14" d="M20.3,16.66v.03c-.15,1.5-.69,5.03-2.62,9.63-2.61,6.18-4.46,7.34-5.43,12.94-.96,5.59,1.66,10.43,1.66,10.43,0,0-4.57,0-8.51-4.66-3.94-4.66-4.3-9.34-4.3-9.34,2.85,11.08,11.8,13.29,11.8,13.29,0,0-4.37-7.53,1.31-17.39,2.93-5.08,4.9-10.87,6.08-15.24,0,.11.01.21.01.32Z"/>
          </g>
          <g>
            <g>
              <path class="cls-3" d="M41.6,50.87s.12.06.35.18c1.49.7,7.46,3.22,12.29.91,1.05-.51,1.95-1.09,2.71-1.71,3.31-2.69,4.16-6.05,4.16-6.05,0,0-1.41.33-1.57.11-.15-.13,1.78-2.25,1.57-8.63-.03-2.1-.31-4.62-.97-7.71-.29-1.39-.71-2.81-1.24-4.22C54.77,12.32,44.36.54,43.01,1.09c-.56.23-.9,6.88-1.1,15.24-.18,6.97-.26,15.12-.29,21.77-.04,7.31-.02,12.77-.02,12.77Z"/>
              <path class="cls-5" d="M43.12,1.07c1.72,0,11.75,11.5,15.79,22.68.53,1.42.95,2.84,1.24,4.22.66,3.08.94,5.61.97,7.71.21,6.38-1.72,8.5-1.57,8.63.04.06.16.08.32.08.46,0,1.25-.19,1.25-.19,0,0-.85,3.36-4.16,6.05-.76.62-1.66,1.2-2.71,1.71-1.46.7-3.01.95-4.52.95-3.49,0-6.72-1.38-7.76-1.87-.24-.12-.35-.18-.35-.18,0,0-.02-5.46.02-12.77.03-6.64.11-14.8.29-21.77.19-8.36.54-15.02,1.1-15.24.03-.01.07-.02.11-.02M43.12,0c-.18,0-.36.03-.52.1-.84.34-1.4.57-1.76,16.21-.15,5.73-.25,13.06-.29,21.79-.04,7.23-.02,12.72-.02,12.78,0,.39.22.75.56.94,0,0,.13.07.39.2,1.29.6,4.63,1.98,8.24,1.98,1.84,0,3.52-.36,4.99-1.06,1.07-.51,2.05-1.13,2.92-1.85,3.54-2.88,4.48-6.47,4.52-6.62.09-.36-.01-.75-.28-1.02-.18-.18-.42-.29-.66-.32.52-1.4,1.1-3.78.97-7.49-.04-2.31-.37-4.97-.99-7.89-.3-1.41-.73-2.88-1.28-4.37-2.42-6.68-6.62-12.77-8.92-15.8-1.34-1.78-5.88-7.58-7.88-7.58h0Z"/>
            </g>
            <g>
              <path class="cls-2" d="M49.72,53.06c-4.24,0-8.14-2.05-8.18-2.07-.04-.02-.07-.07-.07-.12,0-.2-.06-19.75.3-34.18v-.35c.01-.07.06-.12.13-.13,0,0,.01,0,.02,0,.06,0,.11.04.13.1,1.09,4.03,3.02,9.93,6.07,15.21,5.04,8.74,2.17,15.76,1.46,17.24,1.57-.5,8.91-3.36,11.41-13.1.02-.06.07-.1.13-.1,0,0,0,0,.01,0,.07,0,.12.06.12.13.17,5.14-1.05,7.56-1.46,8.36-.04.08-.08.16-.1.21,0,0,.1,0,.18,0,.44,0,1.21-.18,1.22-.18.01,0,.02,0,.03,0,.04,0,.07.01.1.04.03.03.05.08.03.13-.01.05-1.36,5.19-6.94,7.85-1.34.64-2.88.97-4.58.97h0Z"/>
              <path class="cls-1" d="M41.91,16.34c1.18,4.37,3.15,10.16,6.08,15.24,5.69,9.86,1.31,17.39,1.31,17.39,0,0,8.95-2.2,11.8-13.29.21,6.38-1.72,8.5-1.57,8.63.04.06.16.08.32.08.46,0,1.25-.19,1.25-.19,0,0-1.28,5.09-6.87,7.76-1.45.7-3.01.95-4.52.95-4.26,0-8.12-2.05-8.12-2.05,0,0-.06-19.58.3-34.18v-.03c0-.11.01-.21.01-.32M41.91,16.07s-.02,0-.04,0c-.13.02-.23.13-.23.27,0,.05,0,.1,0,.15,0,.06,0,.12,0,.17-.36,14.46-.3,34.02-.3,34.21,0,.1.06.19.14.24.16.09,3.97,2.08,8.25,2.08,1.72,0,3.28-.33,4.64-.98,5.64-2.69,6.96-7.72,7.01-7.94.02-.09,0-.19-.07-.25-.05-.05-.12-.08-.19-.08-.02,0-.04,0-.06,0,0,0-.72.17-1.15.18,0,0,0-.01.01-.02.41-.8,1.65-3.25,1.47-8.43,0-.13-.11-.24-.24-.26,0,0-.02,0-.03,0-.12,0-.23.08-.26.2-2.36,9.17-9.02,12.19-11.03,12.91.88-1.97,3.21-8.76-1.59-17.08-3.04-5.26-4.97-11.16-6.06-15.18-.03-.12-.14-.2-.26-.2h0Z"/>
            </g>
            <path class="cls-17" d="M41.6,50.87s7.08,3.76,12.64,1.1c5.59-2.67,6.87-7.76,6.87-7.76,0,0-1.41.33-1.57.11-.15-.13,1.78-2.25,1.57-8.63-.03-2.1-.31-4.62-.97-7.71-.29-1.39-.71-2.81-1.24-4.22,2.27,22.42-15.34,19.36-17.28,14.35-.04,7.31-.02,12.77-.02,12.77Z"/>
            <path class="cls-15" d="M41.6,50.87s.12.06.35.18c.19-7.77,1.25-48.41,1.61-48.46.47,0,8.94,8.42,13.65,20.93,4.74,12.55,1.24,21.98,1.24,21.98,0,0,1.13-.38,1.06.48-.03.49-1.41,2.59-2.57,4.28,3.31-2.69,4.16-6.05,4.16-6.05,0,0-1.41.33-1.57.11-.15-.13,1.78-2.25,1.57-8.63-.03-2.1-.31-4.62-.97-7.71-.29-1.39-.71-2.81-1.24-4.22C54.77,12.32,44.36.54,43.01,1.09c-.56.23-.9,6.88-1.1,15.24-.18,6.97-.26,15.12-.29,21.77-.04,7.31-.02,12.77-.02,12.77Z"/>
            <ellipse class="cls-9" cx="54.38" cy="17.71" rx="1.46" ry="2.79" transform="translate(-2.04 27.08) rotate(-27.47)"/>
            <ellipse class="cls-13" cx="53.49" cy="20.71" rx=".66" ry=".99" transform="translate(-3.52 27.01) rotate(-27.47)"/>
            <path class="cls-16" d="M41.9,16.66v.03c.15,1.5.69,5.03,2.62,9.63,2.61,6.18,4.46,7.34,5.43,12.94.96,5.59-1.66,10.43-1.66,10.43,0,0,4.57,0,8.51-4.66,3.94-4.66,4.3-9.34,4.3-9.34-2.85,11.08-11.8,13.29-11.8,13.29,0,0,4.37-7.53-1.31-17.39-2.93-5.08-4.9-10.87-6.08-15.24,0,.11-.01.21-.01.32Z"/>
          </g>
        </g>
      </g>
    </g>
  </g>
</svg>