<?xml version="1.0" encoding="UTF-8"?>
<svg xmlns="http://www.w3.org/2000/svg" xmlns:xlink="http://www.w3.org/1999/xlink" viewBox="0 0 19.33 22.21">
  <defs>
    <style>
      .cls-1 {
        fill: url(#radial-gradient-3);
      }

      .cls-2 {
        fill: url(#radial-gradient-2);
      }

      .cls-3 {
        fill: url(#radial-gradient);
      }

      .cls-4 {
        isolation: isolate;
      }

      .cls-5 {
        fill: url(#linear-gradient);
      }

      .cls-5, .cls-6, .cls-7, .cls-8, .cls-9, .cls-10 {
        mix-blend-mode: overlay;
      }

      .cls-6 {
        fill: url(#linear-gradient-2);
      }

      .cls-7 {
        fill: url(#linear-gradient-3);
      }

      .cls-8 {
        fill: url(#linear-gradient-4);
      }

      .cls-9 {
        fill: url(#linear-gradient-5);
      }

      .cls-11 {
        fill: #1a1525;
      }

      .cls-10 {
        opacity: .55;
      }
    </style>
    <radialGradient id="radial-gradient" cx="202.22" cy="-285.83" fx="202.22" fy="-285.83" r="14.78" gradientTransform="translate(-317.45 107.44) rotate(37.58)" gradientUnits="userSpaceOnUse">
      <stop offset=".11" stop-color="#ffaa5b"/>
      <stop offset="1" stop-color="#ffaa5b"/>
    </radialGradient>
    <radialGradient id="radial-gradient-2" cx="8.68" cy="11.53" fx="8.68" fy="11.53" r="5.22" gradientUnits="userSpaceOnUse">
      <stop offset=".41" stop-color="#6938d6"/>
      <stop offset=".91" stop-color="#1a1525"/>
    </radialGradient>
    <radialGradient id="radial-gradient-3" cx="3.93" cy="17.94" fx="3.93" fy="17.94" r="3.02" xlink:href="#radial-gradient-2"/>
    <linearGradient id="linear-gradient" x1="199.19" y1="-277.24" x2="215.32" y2="-255.95" gradientTransform="translate(-317.45 107.44) rotate(37.58)" gradientUnits="userSpaceOnUse">
      <stop offset=".31" stop-color="#ffde8c"/>
      <stop offset=".49" stop-color="#ffe8b0" stop-opacity=".68"/>
      <stop offset=".68" stop-color="#fff2d2" stop-opacity=".39"/>
      <stop offset=".83" stop-color="#fff9ea" stop-opacity=".18"/>
      <stop offset=".94" stop-color="#fffdf9" stop-opacity=".05"/>
      <stop offset="1" stop-color="#fff" stop-opacity="0"/>
    </linearGradient>
    <linearGradient id="linear-gradient-2" x1="196.05" y1="-288.17" x2="198.9" y2="-280.76" xlink:href="#linear-gradient"/>
    <linearGradient id="linear-gradient-3" x1="196.64" y1="-282.35" x2="200.38" y2="-272.63" xlink:href="#linear-gradient"/>
    <linearGradient id="linear-gradient-4" x1="202.23" y1="-533.01" x2="201.77" y2="-528.16" gradientTransform="translate(-521.54 -199.06) rotate(90)" xlink:href="#linear-gradient"/>
    <linearGradient id="linear-gradient-5" x1="203.58" y1="-532.88" x2="203.12" y2="-528.03" gradientTransform="translate(-520.9 -198.71) rotate(90)" xlink:href="#linear-gradient"/>
  </defs>
  <g class="cls-4">
    <g id="Layer_2" data-name="Layer 2">
      <g id="Layer_1-2" data-name="Layer 1">
        <g>
          <g>
            <path class="cls-3" d="M2,21.74c-.32,0-.57-.07-.76-.22-.04-.03-.08-.07-.11-.11-.27-.14-.45-.42-.56-.83C-.24,17.32,4.31,3.76,8.15,1.51c1.16-.68,2.38-1.03,3.61-1.03,2.37,0,4.14,1.32,4.36,1.57l.1.07c.56.45,1.56,1.42,2.17,2.93.55,1.38.61,2.89.17,4.48-1.17,4.2-13.08,12.09-16.45,12.21h-.12Z"/>
            <path class="cls-11" d="M11.76.96c2.36,0,3.98,1.37,4.01,1.41l.16.12c.4.32,1.42,1.24,2.01,2.72.43,1.09.62,2.49.15,4.18-1.15,4.11-12.94,11.75-16,11.86-.04,0-.07,0-.1,0-.2,0-.36-.04-.47-.12-.04-.03-.07-.07-.1-.11h-.01v-.02c-.19-.06-.32-.25-.39-.55C.31,17.54,4.7,4.09,8.39,1.92c1.22-.71,2.36-.97,3.37-.97M11.76,0h0c-1.32,0-2.62.37-3.86,1.1C3.83,3.49-.75,17.25.1,20.7c.15.6.44.92.72,1.1.04.04.08.07.12.1.28.21.63.32,1.05.32.05,0,.1,0,.16,0,3.52-.12,15.62-8.1,16.87-12.56.47-1.7.4-3.31-.19-4.79-.64-1.61-1.72-2.64-2.3-3.11l-.16-.12c-.47-.41-2.25-1.63-4.62-1.63h0Z"/>
          </g>
          <path class="cls-2" d="M3.78,7.63c1.12-.81,2.6-1.12,4.02-.95.72.06,1.4.3,2.07.56.65.31,1.26.65,1.84,1.09,1.15.89,1.98,2.26,2.14,3.7.18,1.43-.15,2.86-.82,4.06.33-1.32.38-2.68.1-3.93-.29-1.25-1-2.32-2.01-3.08-1.02-.76-2.19-1.37-3.44-1.65-1.25-.26-2.6-.27-3.89.19Z"/>
          <path class="cls-1" d="M1.02,16.03c.62-.38,1.34-.55,2.08-.56.74-.01,1.52.2,2.17.64.63.46,1.14,1.1,1.36,1.82.15.34.17.72.24,1.07.01.36,0,.72-.04,1.08-.17-.33-.28-.65-.42-.96-.17-.29-.28-.61-.46-.87-.32-.56-.74-1-1.23-1.34-.98-.7-2.3-.85-3.71-.87Z"/>
          <path class="cls-10" d="M1.53,21.14s-.07-.07-.1-.11h-.01v-.02c-.19-.06-.32-.25-.39-.55,2.81-.11,4.94-2.85,4.94-2.85,0,0,1.51-.69,3.9-3.21,2.41-2.53,3.08-4.52,3.08-4.52,0,0,3.47-2.11,3.48-5.6,0-.66-.19-1.26-.51-1.79.69.55,3.27,2.92,2.16,6.9-1.24,4.44-14.92,13.01-16.57,11.74Z"/>
          <path class="cls-5" d="M6.22,7.03s-1.1,1.04-2.2,4.15c-1.1,3.13-.79,4.54-.79,4.54,0,0-1.29,1.32-1.46,3.87-.05.69.1,1.23.33,1.66-.25.01-.45-.02-.57-.12-.04-.03-.07-.07-.1-.11h-.01v-.02c-.19-.06-.32-.25-.39-.55C.31,17.54,4.7,4.09,8.39,1.92c4.06-2.39,7.33.39,7.38.45l.16.12c.4.32,1.42,1.24,2.01,2.72-.91-1.29-2.34-2.64-4.54-3.29C8.47.47,6.22,7.03,6.22,7.03Z"/>
          <path class="cls-6" d="M7.21,6.36c.07-.13,1.75-4.18,4.98-4.11s4.26,2.28,3.12,4.46-2.57,2.21-2.57,2.21"/>
          <path class="cls-7" d="M4.4,15.06s.32-4.29,1.62-6.38,5.87.47,5.67,2.2-4.53,5.39-4.77,5.48"/>
          <g>
            <ellipse class="cls-8" cx="11.14" cy="3.14" rx="1.24" ry=".74" transform="translate(-.27 5.07) rotate(-25.33)"/>
            <ellipse class="cls-9" cx="10.69" cy="4.75" rx=".62" ry=".42" transform="translate(-1 5.03) rotate(-25.33)"/>
          </g>
        </g>
      </g>
    </g>
  </g>
</svg>